<?xml version="1.0" encoding="utf-8"?>
<!-- Generator: Adobe Illustrator 25.2.3, SVG Export Plug-In . SVG Version: 6.00 Build 0)  -->
<svg version="1.1" id="Layer_1" xmlns="http://www.w3.org/2000/svg" xmlns:xlink="http://www.w3.org/1999/xlink" x="0px" y="0px"
	 viewBox="0 0 1000 1000" style="enable-background:new 0 0 1000 1000;" xml:space="preserve">
<style type="text/css">
	.st0{fill:#00B877;}
</style>
<g>
	<g transform="translate(0.000000,511.000000) scale(0.100000,-0.100000)">
		<path class="st0" d="M1025.9,4986.9c-451.8-66.4-834.6-454.3-901-911.2c-33.2-232.3-33.2-7726.2,0-7930.4
			c30.6-194,145.5-431.3,275.7-579.4c135.3-150.6,403.3-293.5,617.7-326.7c217-35.7,7733.8-38.3,7948.2-2.5
			c467.1,76.6,832.1,441.6,908.7,908.7c33.2,204.2,33.2,7728.7,0,7935.5c-35.8,219.5-178.7,497.7-326.7,627.9
			c-150.6,132.7-385.4,247.6-581.9,278.2C8787.8,5017.5,1227.5,5015,1025.9,4986.9z M5474.7,2299.2l459.4-1077.1l1171.6-12.8
			l1171.6-12.8l-1008.2-929C6717.8-243,6266-669.3,6268.6-676.9c2.5-7.7,245-566.6,538.6-1240.5
			c293.5-673.8,530.9-1230.3,525.8-1235.4c-5.1-5.1-530.9,336.9-1171.6,760.6L5000-1623.9l-1161.3-768.3
			c-640.7-423.7-1166.5-765.7-1171.6-760.6c-5.1,5.1,234.8,566.6,533.5,1248.1l541.1,1237.9l-68.9,63.8
			c-38.3,35.7-492.6,454.3-1010.8,931.6l-939.3,867.8l1169,12.8l1171.6,12.8l462,1079.7c255.2,592.2,467.1,1077.1,474.8,1077.1
			S5219.5,2893.9,5474.7,2299.2z"/>
	</g>
</g>
</svg>
