<?xml version="1.0" encoding="utf-8"?>
<!-- Generator: Adobe Illustrator 27.6.1, SVG Export Plug-In . SVG Version: 6.00 Build 0)  -->
<svg version="1.1" id="layer" xmlns="http://www.w3.org/2000/svg" xmlns:xlink="http://www.w3.org/1999/xlink" x="0px" y="0px"
	 viewBox="0 0 652 86" style="enable-background:new 0 0 652 86;" xml:space="preserve">
<path d="M26,71.9v-57h38.3v9.7H37.1v14.7h22.6v9H37.1v23.6L26,71.9L26,71.9z M69.5,71.9h10.8V29.8H69.5V71.9z M69.5,24h10.8V13.3
	H69.5V24z M127.5,45.7c0-2-0.2-4-0.5-6c-0.4-2-1-3.7-1.9-5.3c-0.9-1.6-2.2-2.8-3.9-3.8s-3.8-1.4-6.4-1.4c-3.7,0-7,0.8-10,2.2
	c-2.9,1.5-5.2,3.6-6.7,6.3v-7.8h-9.7V72h10.7V47.4c0.4-1.3,1-2.5,1.8-3.5c0.8-1.1,1.7-2,2.7-2.8s2-1.4,3.2-1.8
	c1.1-0.4,2.2-0.6,3.3-0.6c2.1,0,3.7,0.8,4.9,2.3c1.2,1.6,1.8,4,1.8,7.4V72h10.8L127.5,45.7L127.5,45.7z M169.4,14.9h-47.5v9.7h18.2
	v47.3h11V24.6h18.2v-9.7H169.4z M173.2,47.3c0.1-1.6,0.5-3,1.1-4.3c0.6-1.3,1.4-2.4,2.4-3.3s2.1-1.6,3.3-2.1
	c1.3-0.5,2.6-0.8,4.1-0.8c2.9,0,5.4,1,7.5,2.9s3.2,4.4,3.5,7.6L173.2,47.3L173.2,47.3z M184.2,72.7c4.7,0,8.8-1,12.2-3.1
	c3.4-2.1,5.9-4.7,7.4-7.9l-9.2-2.6c-0.7,1.7-2,3.1-3.9,4.1c-1.9,1-3.9,1.6-6.1,1.6c-1.4,0-2.7-0.2-4-0.7s-2.4-1.2-3.5-2.1
	c-1-0.9-1.8-2-2.5-3.3c-0.6-1.3-1-2.8-1.2-4.4h32.5c0.1-0.4,0.2-1,0.2-1.6s0-1.3,0-2c0-2.8-0.5-5.6-1.5-8.2s-2.4-4.9-4.3-6.9
	c-1.9-2-4.2-3.6-6.9-4.7c-2.7-1.2-5.8-1.8-9.2-1.8c-3.4,0-6.5,0.6-9.3,1.8c-2.8,1.2-5.1,2.8-7,4.8c-1.9,2-3.4,4.3-4.4,7
	s-1.5,5.5-1.5,8.5c0,2.9,0.5,5.6,1.6,8.3c1,2.6,2.5,4.9,4.5,6.9c1.9,2,4.3,3.5,7,4.7C177.7,72.1,180.8,72.7,184.2,72.7 M208.5,50.9
	c0,2.9,0.5,5.7,1.6,8.3c1,2.6,2.5,5,4.5,7c1.9,2,4.3,3.6,7,4.8c2.7,1.2,5.8,1.8,9.2,1.8c4.7,0,8.6-1,12-3.1c3.3-2,5.7-4.7,7.1-7.9
	l-10.5-3.2c-0.6,1.4-1.8,2.6-3.4,3.5c-1.6,1-3.4,1.4-5.3,1.4c-1.5,0-2.9-0.3-4.3-0.9c-1.3-0.6-2.5-1.5-3.5-2.6s-1.8-2.5-2.4-4
	c-0.6-1.6-0.9-3.3-0.9-5.1c0-1.9,0.3-3.6,0.8-5.1c0.6-1.6,1.3-2.9,2.3-4s2.2-2,3.5-2.6c1.3-0.6,2.8-0.9,4.3-0.9c1.8,0,3.5,0.4,5,1.2
	c1.5,0.8,2.7,2,3.6,3.6l10.5-3.2c-1.6-3.2-4-5.8-7.3-7.8c-3.2-2-7.2-3-11.8-3c-3.4,0-6.5,0.6-9.2,1.8c-2.7,1.2-5.1,2.8-7,4.7
	c-1.9,2-3.4,4.3-4.4,6.9C209,45.2,208.5,47.9,208.5,50.9 M293.9,45.7c0-2.1-0.2-4.1-0.6-6.1c-0.4-2-1-3.7-2-5.3
	c-1-1.6-2.3-2.8-4-3.7c-1.7-0.9-3.9-1.4-6.7-1.4c-3.2,0-6.1,0.7-8.8,2.2c-2.6,1.5-4.8,3.6-6.3,6.3V13.4h-10.7V72h10.8V47.4
	c0.4-1.3,1-2.5,1.8-3.5c0.8-1.1,1.7-2,2.7-2.8s2-1.4,3.1-1.8c1.1-0.4,2.1-0.6,3.1-0.6c2.2,0,4,0.8,5.2,2.4s1.8,4,1.8,7.3V72h10.8
	V45.7H293.9z M329.7,49.6l10.6-26.3l10.3,26.3H329.7z M313.8,71.9h7.7l6.7-16.7h23.9l6.7,16.7h7.7l-23.3-57h-6.1L313.8,71.9z
	 M383.5,72.7c3.6,0,7-0.8,10-2.5s5.5-4.1,7.4-7.3l0.2,4.9c0.1,1.2,0.5,2.3,1.5,3.1c0.9,0.8,2.1,1.2,3.5,1.2c0.4,0,0.9,0,1.3,0
	c0.5,0,1.1-0.1,1.9-0.2v-6.1c-1.5-0.1-2.2-0.9-2.2-2.6V30H400v26.3c-1.2,3.2-3.1,5.7-5.7,7.6c-2.5,1.8-5.3,2.8-8.2,2.8
	c-5.9,0-8.9-4.3-8.9-12.8V30.1h-7.1v25.1c0,5.8,1.1,10.2,3.4,13.2C375.8,71.2,379.2,72.7,383.5,72.7 M432,72.7
	c5.1,0,9.1-1.1,12.1-3.5c3-2.3,4.5-5.4,4.5-9.3c0-1.8-0.3-3.3-1-4.5s-1.7-2.3-3.1-3.2c-1.4-0.9-3.1-1.7-5.1-2.4
	c-2.1-0.7-4.5-1.3-7.3-2c-1.8-0.4-3.3-0.8-4.5-1.2c-1.3-0.4-2.3-0.8-3.1-1.3c-0.8-0.5-1.4-1-1.7-1.7c-0.3-0.6-0.5-1.4-0.5-2.4
	c0-2.4,0.9-4.2,2.7-5.3c1.8-1.1,4-1.6,6.5-1.6c2.3,0,4.5,0.4,6.7,1.2c2.2,0.8,4.2,1.9,5.9,3.5l3.2-4.3c-1.9-1.7-4.2-3-6.9-4
	c-2.7-1-5.7-1.5-8.8-1.5c-2.2,0-4.3,0.3-6.3,0.8c-2,0.6-3.7,1.4-5.1,2.5s-2.6,2.5-3.4,4.1s-1.2,3.5-1.2,5.6c0,1.7,0.3,3.1,0.8,4.2
	s1.4,2.1,2.6,2.9s2.7,1.5,4.5,2.1s4,1.2,6.5,1.8c2,0.5,3.7,0.9,5.2,1.4c1.5,0.4,2.7,0.9,3.7,1.4s1.7,1.2,2.2,1.9
	c0.5,0.7,0.7,1.6,0.7,2.6c0,2.2-0.9,3.9-2.7,5.1c-1.8,1.2-4.2,1.8-7.3,1.8c-2.7,0-5.3-0.5-7.8-1.4s-4.9-2.3-7.4-4.2l-3.1,4.7
	c2.4,2,5.2,3.5,8.4,4.5C425.3,72.2,428.6,72.7,432,72.7 M475.3,64.2c-0.4,0.3-1.2,0.6-2.4,1.1c-1.2,0.5-2.4,0.7-3.8,0.7
	c-1.2,0-2.3-0.3-3.2-1c-0.9-0.7-1.4-1.8-1.5-3.4v-26h9.4v-5.5h-9.4v-14h-7.1v14h-5.7v5.5h5.7v28.2c0,3,0.9,5.2,2.8,6.6
	s4.1,2.1,6.7,2.1c1.1,0,2.2-0.1,3.3-0.3c1-0.2,2-0.4,2.9-0.7c0.9-0.3,1.7-0.6,2.4-0.9c0.7-0.3,1.3-0.5,1.7-0.8L475.3,64.2z
	 M504.1,29.8c-0.3-0.1-0.6-0.1-1-0.1h-1.4c-2.7,0.2-5.2,1.2-7.5,3c-2.4,1.8-4.3,4.1-5.7,7V30h-6.6v41.9h7.1V46
	c1.1-3.1,3-5.4,5.7-7.1s5.8-2.6,9.4-2.7V29.8z M522.1,67.4c-1.3,0-2.5-0.2-3.6-0.6s-2.1-1-2.9-1.8c-0.8-0.8-1.5-1.6-1.9-2.7
	c-0.5-1-0.7-2.1-0.7-3.3c0-2.4,1.1-4.4,3.3-5.9s5.1-2.3,8.6-2.3c3.7,0,7.3,0.7,10.7,2V59c0,1.1-0.5,2.1-1.5,3.1
	c-1.1,1.6-2.8,2.8-4.9,3.7C527,67,524.7,67.4,522.1,67.4 M520.3,72.7c3.3,0,6.3-0.7,9.2-2s5.2-3.2,7.1-5.7l0.2,3
	c0.2,1.2,0.7,2.2,1.5,3s1.9,1.2,3.3,1.2c0.5,0,1,0,1.5-0.1s1.1-0.1,1.8-0.2v-6.1c-1.5-0.1-2.3-0.9-2.3-2.6V46.1
	c0-5.4-1.5-9.5-4.6-12.4c-3.1-2.9-7.4-4.4-12.9-4.4s-10.9,1.8-16.3,5.5l2.3,4.6c4.7-3.3,9.1-4.9,13.3-4.9c3.5,0,6.3,1,8.2,2.9
	c1.9,2,2.9,4.6,2.9,8.1v3.4c-1.6-0.6-3.5-1.2-5.5-1.5c-2.1-0.4-4.1-0.6-6.2-0.6c-2.6,0-4.9,0.3-7.1,1c-2.2,0.6-4,1.5-5.6,2.6
	s-2.8,2.5-3.7,4.1c-0.9,1.6-1.3,3.3-1.3,5.3c0,1.9,0.4,3.6,1.1,5.2s1.7,3,3,4.1c1.3,1.2,2.7,2.1,4.5,2.8
	C516.5,72.4,518.3,72.7,520.3,72.7 M552.6,63.6c0,2.8,0.8,5,2.4,6.5c1.6,1.6,3.7,2.3,6.5,2.3c1.2,0,2.6-0.2,4.3-0.5
	c1.6-0.3,3-0.7,4.2-1.2l-1.1-5.7c-0.7,0.3-1.4,0.5-2.2,0.7c-0.8,0.2-1.5,0.3-2.1,0.3c-1.5,0-2.7-0.4-3.5-1.3s-1.2-2.1-1.2-3.7V13.2
	h-7.1v50.4H552.6z M573.8,71.9h7.1V30h-7.1V71.9z M573.8,22.1h7.1v-8.8h-7.1V22.1z M603.2,67.4c-1.3,0-2.5-0.2-3.6-0.6
	c-1.1-0.4-2.1-1-2.9-1.8s-1.5-1.6-1.9-2.7c-0.5-1-0.7-2.1-0.7-3.3c0-2.4,1.1-4.4,3.3-5.9c2.2-1.5,5.1-2.3,8.6-2.3
	c3.7,0,7.3,0.7,10.7,2V59c0,1.1-0.5,2.1-1.5,3.1c-1.1,1.6-2.8,2.8-4.9,3.7C608.1,67,605.8,67.4,603.2,67.4 M601.4,72.7
	c3.3,0,6.3-0.7,9.2-2s5.2-3.2,7.1-5.7l0.2,3c0.2,1.2,0.7,2.2,1.5,3s1.9,1.2,3.3,1.2c0.5,0,1,0,1.5-0.1s1.1-0.1,1.8-0.2v-6.1
	c-1.5-0.1-2.3-0.9-2.3-2.6V46.1c0-5.4-1.5-9.5-4.6-12.4c-3.1-2.9-7.4-4.4-12.9-4.4s-10.9,1.8-16.3,5.5l2.3,4.6
	c4.7-3.3,9.1-4.9,13.3-4.9c3.5,0,6.3,1,8.2,2.9c1.9,2,2.9,4.6,2.9,8.1v3.4c-1.6-0.6-3.5-1.2-5.5-1.5c-2.1-0.4-4.1-0.6-6.2-0.6
	c-2.6,0-4.9,0.3-7.1,1c-2.2,0.6-4,1.5-5.6,2.6c-1.6,1.1-2.8,2.5-3.7,4.1s-1.3,3.3-1.3,5.3c0,1.9,0.4,3.6,1.1,5.2s1.7,3,3,4.1
	c1.3,1.2,2.7,2.1,4.5,2.8C597.6,72.4,599.4,72.7,601.4,72.7"/>
</svg>
