<?xml version="1.0" encoding="utf-8"?>
<!-- Generator: Adobe Illustrator 27.6.1, SVG Export Plug-In . SVG Version: 6.00 Build 0)  -->
<svg version="1.1" id="layer" xmlns="http://www.w3.org/2000/svg" xmlns:xlink="http://www.w3.org/1999/xlink" x="0px" y="0px"
	 viewBox="0 0 652 80" style="enable-background:new 0 0 652 80;" xml:space="preserve">
<style type="text/css">
	.st0{fill:#004161;}
	.st1{fill:#EA5538;}
</style>
<g>
	<path class="st0" d="M63.7,31.8c-0.9-3.3-1-9.5-7.5-9.5h-4.9v12.5v7.8v13.9c0,3.8,0.5,3.4,5.4,4.2l2.1,0.1v2.5H40.9h-8.1v-2.5
		l7.5-0.9V42.5v-7.7V22h-4.9c-6.5,0-6.5,6.2-7.4,9.5h-1.9c0,0.3,1.3-14.8,1.3-14.8h1h8.7h7.8h18.4h1c0,0,1.3,15.1,1.3,14.8h-1.9
		V31.8z"/>
	<path class="st0" d="M99.1,63.1h-6.8v-2.5l6.1-0.9V46.3v-4.6H83.7v4.4v10.2c0,3.8,0.5,3.5,5.4,4.2l0.8,0.1v2.5H73.4h-7v-2.5
		l6.4-0.9V46.3V35.9V23.5c0-3.8-0.5-3.6-5.4-4.2l-1.1-0.1v-2.5H83h6.8v2.5l-6.1,0.9v15.7V37h14.7v-1V23.5c0-3.8-0.5-3.5-5.4-4.2
		l-0.7-0.1v-2.5h16.4h7.1v2.5l-6.4,0.9v15.7v10.4v10.2c0,3.8,0.5,3.6,5.4,4.2l1.1,0.1v2.5H99.1V63.1z"/>
	<path class="st0" d="M155,63.1h-30.6h-7v-2.5l6.4-0.9V46.3V35.9V23.5c0-3.8-0.5-3.6-5.4-4.2l-1.1-0.1v-2.5h8.1h29.7l-1,11.7h-1.8
		c-0.1-4-1-6.9-6.6-6.9h-11v15.3h9.2c4.5,0,4.9-2.4,5.4-4.7h1.9l-1.3,15.3H148c0.1-5.8-2.8-5.8-5.1-5.8h-8.3v10.3
		c0,5.5-0.2,6.2,7.4,6.2c8.7,0,10.7-1.7,12.2-8.4h1.8L155,63.1z"/>
	<path class="st0" d="M206.7,63.1h-14.4v-2.5l7.1-0.9l-3.3-10.1h-15.8c-1.2,3.3-2,5.9-2.3,6.5c-1.1,3.3,0.3,3.9,5,4.4V63h-8h-8.6
		v-2.5l5.8-0.9l14.8-43h9.8L210.4,57c1,3,2.4,3,4.2,3.2l2,0.2v1.5v1h-9.9V63.1z M188.5,26.2c0,0-3.4,10.2-6.4,18.7h12.5L188.5,26.2z
		"/>
	<path class="st0" d="M250.5,20.1v7.3v18.9c0,6.1-0.3,17.5-16.3,17.5c-15.1,0-19.2-6.9-19.2-17.5v-8.8v-9.9v-4.1
		c0-3.8-0.5-3.6-5.4-4.2l-1.1-0.1v-2.5h16.2h7.1v2.5l-6.4,0.9v7.3v10v8.4c0,7.7,2,13,10.3,13c9.6,0,10.4-6.3,10.4-13.7V27.7v-4.2
		c0-3.8-0.5-3.6-5.4-4.2l-1.1-0.1v-2.5h10.2h7.1v2.5L250.5,20.1z"/>
	<path class="st0" d="M271.1,64c-6.6,0-12.7-1.8-15.2-3.6c0-0.3,1.1-12.3,1-11.4l1.9,0.2c0,2.3,0.4,6.5,4,8c1.3,0.5,4.2,1.9,8.7,1.9
		c6.5,0,8.4-3.3,8.4-6.3c0-3.4-2.6-5.4-7.8-7.1c-1.5-0.5-4.6-1.7-8.1-3.1c-5.8-2.3-8-6.5-8-13.1c0-11.4,10.6-13.5,18.6-13.5
		c4.6,0,9.3,0.9,12.8,1.7c0-0.2-1.2,13.8-1.2,13.8h-1.9c0.1-8.3-3.4-10.7-10.2-10.7c-4.4,0-9.4,0.9-9.4,5.6c0,4.9,7.7,6,16.3,9.3
		c4.7,1.8,7.8,6.3,7.8,13.1C288.5,60.5,277.6,64,271.1,64"/>
	<path class="st0" d="M326.6,31.6c-0.9-3.3-1-9.5-7.5-9.5h-4.9v12.5v7.8v13.9c0,3.8,0.5,3.4,5.4,4.2l2.1,0.1v2.5H304h-8.1v-2.5
		l7.5-0.9V42.3v-7.7V21.9h-5c-6.5,0-6.5,6.2-7.4,9.5h-1.9c0,0.3,1.3-14.8,1.3-14.8h1h8.7h7.8h18.4h1c0,0,1.3,15.1,1.3,14.8h-1.9
		V31.6z"/>
	<path class="st0" d="M369,63.1h-6.6c-0.3-1.8-1-5.1-1.4-6.9c-0.9-4.1-1.7-7.3-3.2-10.1c-1.3-2.3-3.8-2.6-8-2.6h-3v5.1v7.6
		c0,3.8,0.5,3.6,5.4,4.2l1.1,0.1V63h-16.7h-7.2v-2.5l6.4-0.9V46.2V35.8V23.5c0-3.8-0.5-3.6-5.4-4.2l-1.1-0.1v-2.5h17.4h5.9
		c11.9,0,18.6,3,18.6,12.2c0,10.4-6.5,11.5-11.4,12.1c6.5,1.2,10,3.6,12.5,16.7c0.5,2.7,1.8,2.4,3.6,2.8V63H369V63.1z M353.1,21.6
		h-6.4v17.2h6.4c5.4,0,8.1-3.1,8.1-8.9C361.2,22.6,356.1,21.6,353.1,21.6 M403,63.1v-2.5l6-0.9l-3.2-10.1H389
		c-1.4,3.9-2.5,6.9-2.7,7.5c-1,3,1.2,3.4,4.3,3.4V63h-7.1h-2.2h-4.2v-2.5l4.2-0.9l15.2-43h9.8L420,57c1,3,3,3.1,4.2,3.3l1.5,0.1v2.5
		H403V63.1z M398.1,25.2c0,0-3.9,10.7-7.2,19.7h13.4L398.1,25.2z M461.1,63.1h-28.4h-6v-2.5l5.4-0.9V46.3V35.9V23.5
		c0-3.8-0.5-3.6-5.4-4.2l-1.1-0.1v-2.5h8.1h15.7v2.5l-6.4,0.9v13.4v18.6c0,5.5-0.2,6.2,7.4,6.2c6.8,0,8.8-3.9,10.3-10.5h1.8
		L461.1,63.1z"/>
	<path class="st0" d="M469.6,63.1h-7.1v-2.5l6.4-0.9V46.3V35.9V23.5c0-3.8-0.5-3.6-5.4-4.2l-1.1-0.1v-2.5h16.7h7.1v2.5l-6.4,0.9
		v15.7v10.4v10.2c0,3.8,0.5,3.6,5.4,4.2l1.1,0.1v2.5h-16.7V63.1z"/>
	<path class="st0" d="M527.7,63.1h-14.3v-2.5l7.1-0.9l-3.3-10.1h-15.8c-1.2,3.3-2,5.9-2.3,6.5c-1.1,3.3,0.3,3.9,5,4.4V63h-8h-8.7
		v-2.5l5.8-0.9l14.8-43h9.8L531.3,57c1,3,2.4,3,4.2,3.2l2,0.2v1.5v1h-9.9V63.1z M509.5,26.2c0,0-3.4,10.2-6.4,18.7h12.5L509.5,26.2z
		"/>
	<path class="st0" d="M580,20.1v7.7v35.7H573l-23.7-36.1v16.1v12.9c0,3.8,0.5,3.6,5.4,4.2l1.1,0.1v2.5h-10.2h-6.6v-2.5l6-0.9V43.5
		V27.8v-4.3c0-3.8-0.5-3.4-5.4-4.2l-2.4-0.1v-2.5h11.5h6.8l20.1,30.6V28.2v-4.7c0-3.8-0.5-3.6-5.4-4.2l-1.1-0.1v-2.5h10.2h7.1v2.5
		L580,20.1z"/>
	<polygon class="st1" points="611.6,20.8 612,21 613.1,21.7 613.5,21.9 614.1,22.3 614.6,22.5 615,23 615.7,23.3 616.1,22.9 
		616.2,22.6 616.5,22.1 616.5,21.2 616.7,20.8 616.6,20.4 616.6,19.8 616.8,19.2 616.9,18.5 616.8,18.2 617.2,17.7 617.1,17.2 
		617.3,16.9 617.4,16.6 617.7,16.9 617.8,17.7 618.1,17.8 618.1,18.2 618.3,18.7 618.4,19.4 618.8,20.2 619.1,20 619.2,19.9 
		619.7,20.4 619.9,20.9 619.9,21.6 620.1,22.4 620.4,22.6 620.5,23.8 620.7,24.4 621.1,24.9 621.7,25 622,25.4 622.6,25.7 
		622.7,26.3 623,26.7 623.2,27.4 623.5,27.8 623.5,27.6 624,27.8 624.4,28.9 625.2,29.9 625.6,30.6 625.9,30.3 625.9,30.9 
		625.9,31.3 625.9,31.8 625.8,32.7 626,32.6 626,34.3 625.8,34.6 625.7,35.1 625.4,35.3 625.5,36.1 625.1,37 624.8,37.5 624.5,37.7 
		624.1,38.4 623.9,38.9 623.7,39.2 623.4,39.9 623,40.7 622.8,41.4 622.8,41.6 622.7,42.1 622.2,42.5 621.7,42.4 621.3,42.5 
		620.6,43 620.1,43.3 619.4,42.8 619.2,42.8 619.1,42.4 618.9,42.7 618.3,43.2 617.8,42.9 617.3,42.7 616.5,42.6 615.6,41.7 
		615.5,41.3 615.3,40.7 615,39.9 614.6,40.1 614.3,40.1 614.5,39.7 614.5,39.1 614.2,38.8 614.1,39.6 613.4,39.6 613.7,39.2 
		614.1,38.2 614.1,37.5 613.8,37.6 613.7,37.8 613.8,38.2 613.2,38.5 613,38.8 612.8,39.1 612.7,39.5 612.2,39.2 611.7,38.3 
		611.6,38 611.3,37.9 610.9,37.1 610.4,37 609.8,37 609.4,36.7 609.1,36.6 608.8,36.7 608.1,36.5 607.3,36.7 607,37 605.7,37.6 
		605,37.5 604,38.1 603.9,38.3 603.7,38.9 603.3,39.2 603,39.2 602.5,39.5 602.1,39.2 601.6,39.3 601,39.6 600.7,39.9 599.9,40.4 
		599.3,40.7 598.5,40.7 597.9,40.4 597.5,40.2 597.2,39.7 597.5,39.5 597.4,38.7 597.4,38.1 596.6,37.1 596.4,36.5 596.4,35.7 
		595.8,35.4 595.4,34.9 595,34.2 594.7,33.7 594.3,33 594.6,33.1 594.5,32.8 594.9,33.1 595,32.3 594.6,32.1 594.2,31.5 594.2,31.1 
		594.2,30.5 594.1,29.9 594.1,29.6 594.2,29.1 594.6,29.4 594.8,28.9 595.1,28.4 595.5,28.4 595.8,27.9 596.3,27.4 596.8,27.6 
		597.3,27 597.7,27.2 598.1,26.6 598.6,26.5 599.1,26.3 599.5,26.2 599.9,25.8 600.1,25.2 600.7,24.5 600.5,24 600.4,23.5 
		600.6,23.2 601,22.8 601.1,23.2 601.6,24 601.7,23.5 601.4,23 601.5,22.7 601.8,22.8 602.4,22.6 602.4,22.2 602.2,21.8 602.5,21.6 
		602.7,20.8 603.1,20.5 603.4,20.8 603.8,20.6 604,20.2 604.4,20.1 604.7,20.2 604.9,20.6 605.3,20.7 605.2,21.5 605.4,21.5 
		605.5,21 605.8,20.8 606.2,21 606.6,21.1 606.5,20.7 606.2,20.3 606.5,20 606.6,19.8 607.1,19.6 606.9,19.1 607.1,18.8 607.4,18.5 
		607.7,18.2 608.3,18.4 608.8,18.3 609,18.1 608.9,17.6 608.4,17.3 609.2,17.4 609.6,17.7 609.9,17.8 610.6,18 611.2,18.1 
		611.5,18.3 611.8,17.7 612.2,18 612.4,17.9 612.7,18.3 612.3,19.1 611.9,19.2 611.9,19.5 	"/>
	<polygon class="st1" points="618.8,44.8 619.3,44.8 619.7,45 620.1,45.3 620.6,45.1 621,44.9 621.4,45.1 621.4,46 621.2,46.5 
		621.1,46.9 620.8,47 620.5,47.1 620.4,47.5 619.9,47.6 619.6,47.2 619.3,46.6 619.2,45.9 618.8,45.3 	"/>
</g>
</svg>
