<?xml version="1.0" encoding="utf-8"?>
<!-- Generator: Adobe Illustrator 23.0.2, SVG Export Plug-In . SVG Version: 6.00 Build 0)  -->
<svg version="1.1" id="Layer_1" xmlns="http://www.w3.org/2000/svg" xmlns:xlink="http://www.w3.org/1999/xlink" x="0px" y="0px"
	 viewBox="0 0 300.89999 41.40082" style="enable-background:new 0 0 300.89999 41.40082;" xml:space="preserve">
<title>Your Money</title>
<g>
	<path d="M119.12445,1.40082l-6.07513,37.4H1v-37.4H119.12445 M120.3,0.40082H0v39.4h113.9L120.3,0.40082L120.3,0.40082z"/>
</g>
<path d="M10.7,34.80082c0.6,0.3,1.2,0.5,1.8,0.7c0.7,0.2,1.3,0.3,2,0.3c1.2,0.1,2.5-0.3,3.5-1.1c1.1-0.8,2-1.7,2.8-2.7
	c-0.4-1.6-0.9-3.2-1.4-5c-0.5-1.7-1-3.4-1.6-5c-0.6-1.7-1.1-3.2-1.6-4.8c-0.5-1.6-1-3-1.5-4.2h-2.6c0-0.4-0.1-0.7-0.1-1s0-0.5,0-0.8
	c0-0.7,0.1-1.3,0.3-2c0.2-0.5,0.5-1,0.9-1.4H21c0.3,0.8,0.7,1.9,1.2,3.3s0.9,2.8,1.4,4.4s0.9,3.1,1.4,4.7s0.8,2.9,1.2,4
	c0.9-1.6,1.7-3.2,2.4-5c0.6-1.6,1-3.2,1.2-4.9c0.1-0.2,0.1-0.5,0.1-0.8v-0.7H27c-0.1-0.3-0.2-0.6-0.2-0.9c-0.1-0.3-0.1-0.6-0.1-0.8
	c0-0.7,0.1-1.3,0.3-2c0.2-0.5,0.5-0.9,0.9-1.4h7.8c0.4,0.8,0.7,1.6,0.8,2.5c0.1,0.7,0.2,1.5,0.2,2.2c-0.1,2-0.4,3.9-1.1,5.7
	c-0.7,2.1-1.6,4.2-2.7,6.2c-1.1,2.1-2.3,4.1-3.7,6c-1.3,2-2.6,3.7-3.9,5.2c-0.7,0.9-1.5,1.7-2.3,2.5c-0.8,0.7-1.6,1.3-2.5,1.8
	s-1.9,0.9-2.9,1.2c-1.2,0.3-2.3,0.4-3.5,0.4c-0.4,0-0.9-0.1-1.3-0.1c-0.5-0.1-0.9-0.2-1.5-0.3c-0.4-0.1-0.9-0.2-1.3-0.4
	c-0.4-0.1-0.7-0.3-1.1-0.4C9.1,40.20082,10.7,34.80082,10.7,34.80082z M37.7,23.30082c0-1.9,0.3-3.8,0.9-5.6
	c0.6-1.9,1.5-3.6,2.7-5.2s2.7-2.8,4.5-3.8c2-1,4.1-1.5,6.3-1.5c1.4,0,2.8,0.2,4.1,0.6c1.2,0.4,2.4,1.1,3.4,2c1,0.9,1.8,2,2.3,3.2
	c0.6,1.5,0.8,3,0.8,4.6c0,1.9-0.3,3.8-0.9,5.6c-0.6,1.8-1.5,3.6-2.6,5.2s-2.7,2.9-4.5,3.9c-2,1-4.1,1.6-6.3,1.5
	c-1.4,0-2.8-0.2-4.2-0.6c-1.3-0.4-2.5-1-3.5-1.9s-1.8-2-2.3-3.2C37.9,26.50082,37.6,24.90082,37.7,23.30082z M48.9,27.90082
	c1.1,0.1,2.2-0.4,2.9-1.2c0.8-0.8,1.5-1.8,1.8-2.8c0.4-1.1,0.8-2.2,1-3.4c0.2-0.9,0.3-1.8,0.3-2.7c0-0.6-0.1-1.2-0.2-1.7
	c-0.1-0.6-0.3-1.1-0.6-1.6c-0.3-0.4-0.6-0.8-1.1-1.1s-1.1-0.4-1.7-0.4c-1.1-0.1-2.2,0.4-2.9,1.2c-0.8,0.8-1.4,1.8-1.8,2.9
	c-0.4,1.1-0.8,2.2-0.9,3.4c-0.2,0.9-0.3,1.8-0.3,2.7c0,0.6,0.1,1.2,0.1,1.7c0.1,0.6,0.3,1.1,0.6,1.6c0.2,0.4,0.6,0.8,1,1.1
	C47.7,27.80082,48.3,27.90082,48.9,27.90082z M67,13.00082h-2.5c-0.1-0.3-0.2-0.7-0.2-1c-0.1-0.3-0.1-0.5-0.1-0.8
	c0-0.7,0.1-1.3,0.4-2c0.2-0.5,0.5-0.9,0.8-1.4h10.5l-3.4,14.8c-0.2,0.6-0.3,1.2-0.3,1.7c-0.1,0.4-0.1,0.9-0.1,1.3s0.1,0.9,0.4,1.3
	s0.8,0.5,1.2,0.4c0.6-0.1,1.3-0.3,1.8-0.7c0.7-0.6,1.3-1.2,1.8-2c0.7-1.1,1.3-2.3,1.7-3.6c0.6-1.7,1.1-3.5,1.5-5.3l1.7-8H90l-4,20.1
	h2.5c0.1,0.3,0.2,0.7,0.2,1c0.1,0.3,0.1,0.6,0.1,0.8c0,0.7-0.1,1.3-0.4,1.9c-0.2,0.5-0.5,0.9-0.8,1.3h-9l0.7-4.2
	c-1.1,1.3-2.3,2.5-3.7,3.5c-1.6,0.9-3.3,1.5-5.1,1.4c-1.6,0.1-3.3-0.4-4.6-1.4c-1.2-1-1.8-2.5-1.7-4.1c0-0.8,0.1-1.6,0.2-2.3
	c0.1-0.8,0.3-1.6,0.4-2.4C64.6,23.40082,67,13.00082,67,13.00082z M94.7,13.00082h-2.5c-0.2-0.4-0.2-0.7-0.2-1
	c-0.1-0.3-0.1-0.6-0.1-0.8c0-0.7,0.1-1.3,0.3-2c0.2-0.5,0.5-1,0.9-1.4h9.4l-0.8,4.7c0.9-1.8,2.1-3.1,3.3-3.8c1-0.6,2.2-0.9,3.4-1
	c0.6,0,1.2,0.1,1.8,0.2c0.60001,0.1,1.1,0.3,1.6,0.6l-2.2,6.4c-0.4-0.2-0.8-0.3-1.3-0.4c-0.4-0.1-0.9-0.2-1.4-0.1
	c-0.7,0-1.4,0.2-2,0.4c-0.7,0.4-1.3,0.9-1.8,1.6c-0.7,0.9-1.2,1.8-1.6,2.8c-0.5,1.4-0.9,2.8-1.2,4.3l-1.90001,9.5h-7.8
	L94.7,13.00082z"/>
<path d="M225.8,0.40082l-3.60001,20.9l-8.2-20.9h-11.10001l-6.7,39.6H207l3.7-21.7l9.60001,21.7h9.60001l6.7-39.5h-10.8V0.40082z
	 M148.39999,0.40082l-11.3,18.6l-5.89999-18.6h-10.9l-6.4,39.4H124l3.6-19.5l3.8,13.5h6.8l7.39999-13.6l-3.60001,19.7h10.3
	l6.39999-39.4L148.39999,0.40082L148.39999,0.40082z M288.70001,0.40082l-9.70001,14l-5.39999-14h-33.7l-6.8,39.6H260.5l1.60001-9.4
	h-17.39999l1-5.9H263l1.5-8.9h-17.3l1-5.9h17.2l6.39999,15.3l-2.5,14.8h11l2.60001-14.9l18-24.5L288.70001,0.40082
	L288.70001,0.40082z M177.5,0.00082c11.2-0.1,20.3,9,20.3,20.2s-9,20.3-20.2,20.3c-11.2,0.1-20.3-9-20.3-20.2
	S166.3,0.10082,177.5,0.00082z M177.5,10.60082c-5.3,0-9.7,4.3-9.7,9.7c0,5.3,4.3,9.7,9.7,9.7c5.3,0,9.7-4.3,9.7-9.7
	S182.89999,10.60082,177.5,10.60082z"/>
</svg>
