<?xml version="1.0" encoding="utf-8"?>
<!-- Generator: Adobe Illustrator 25.4.1, SVG Export Plug-In . SVG Version: 6.00 Build 0)  -->
<svg version="1.1" id="Layer_1" xmlns="http://www.w3.org/2000/svg" xmlns:xlink="http://www.w3.org/1999/xlink" x="0px" y="0px"
	 viewBox="0 0 192 192" style="enable-background:new 0 0 192 192;" xml:space="preserve">
<style type="text/css">
	.st0{fill:#C6FEE2;stroke:#C6FEE2;}
	.st2{fill:#33FE99;}
</style>
<polygon class="st0" points="191,168.1 138.6,93.8 187.7,23.7 187,23.7 187.7,22.7 150.4,22.7 117.5,72.4 84.1,22.7 47.3,22.7 
	48,23.7 47.3,23.7 96.4,94.1 44,168.2 44.7,168.2 44,169.2 80.9,169.2 117.5,116 153.9,169.2 153.9,169.1 191,169.1 190.3,168.1 "/>
<g class="st1">
	<path class="st2" d="M110.9,168.2L74.5,115l-36.6,53.2H1l52.8-74.6L4.3,22.7h36.8l33.4,49.7l32.9-49.7h37.3L95.2,93.3l52.8,74.8
		L110.9,168.2L110.9,168.2z"/>
</g>
</svg>
